<?xml version="1.0" encoding="utf-8"?>
<!-- Generator: Adobe Illustrator 15.0.0, SVG Export Plug-In  -->
<!DOCTYPE svg PUBLIC "-//W3C//DTD SVG 1.1//EN" "http://www.w3.org/Graphics/SVG/1.1/DTD/svg11.dtd" [
	<!ENTITY ns_flows "http://ns.adobe.com/Flows/1.0/">
]>
<svg version="1.1"
	 xmlns="http://www.w3.org/2000/svg" xmlns:xlink="http://www.w3.org/1999/xlink" xmlns:a="http://ns.adobe.com/AdobeSVGViewerExtensions/3.0/"
	 x="0px" y="0px" width="733px" height="162px" viewBox="-0.829 -0.41 733 162" enable-background="new -0.829 -0.41 733 162"
	 xml:space="preserve">
<defs>
</defs>
<path fill="#424144" d="M721.117,39.643c2.918,0,5.333,1.006,7.345,3.019c2.013,2.012,2.918,4.427,2.918,7.144
	c0,1.912-0.503,3.623-1.509,5.232c-1.006,1.61-2.214,2.817-3.823,3.623c-1.61,0.805-3.22,1.308-5.031,1.308
	c-2.918,0-5.332-1.006-7.345-3.019c-2.013-2.013-2.918-4.427-2.918-7.043c0-1.912,0.503-3.622,1.509-5.232
	c1.007-1.61,2.214-2.817,3.824-3.622C717.796,40.045,719.407,39.643,721.117,39.643z M721.117,41.252
	c-2.415,0-4.527,0.906-6.238,2.616c-1.609,1.61-2.313,3.521-2.313,5.835c0,2.415,0.905,4.427,2.716,6.138
	c1.711,1.509,3.622,2.314,5.836,2.314c2.415,0,4.528-0.905,6.238-2.616c1.61-1.61,2.314-3.521,2.314-5.836
	c0-2.415-0.905-4.427-2.717-6.138C725.342,42.057,723.431,41.252,721.117,41.252z M716.69,55.339V44.472h3.823
	c1.308,0,2.214,0.101,2.817,0.302s1.006,0.503,1.408,1.006c0.402,0.503,0.504,1.006,0.504,1.61c0,0.805-0.303,1.509-0.906,2.113
	c-0.604,0.604-1.308,0.906-2.314,1.006c0.403,0.201,0.705,0.402,1.007,0.604c0.503,0.503,1.006,1.208,1.609,2.113l1.309,2.113
	h-2.113l-1.006-1.71c-0.704-1.308-1.309-2.113-1.812-2.516c-0.302-0.302-0.805-0.402-1.509-0.402H718.4v4.628H716.69L716.69,55.339z
	 M718.4,49.201h2.214c1.006,0,1.711-0.101,2.113-0.402c0.402-0.302,0.604-0.705,0.604-1.208c0-0.302-0.101-0.604-0.302-0.906
	c-0.201-0.302-0.503-0.402-0.806-0.503c-0.302-0.101-0.905-0.201-1.71-0.201H718.5v3.22H718.4z"/>
<circle fill="#B2B2B2" cx="80.393" cy="80.392" r="80.392"/>
<circle fill="#424144" cx="80.393" cy="80.392" r="71.739"/>
<path fill="#F39200" d="M53.528,64.897l-5.433-10.263c0,0,14.187,0.403,36.121,2.415C72.042,76.468,65.199,87.435,65.199,87.435
	l-4.93-9.559c-33.203,21.23,6.138,39.14,21.029,37.832C52.824,132.109-0.302,98.906,53.528,64.897"/>
<path fill="#FFFFFF" d="M107.257,95.887l5.434,10.263c0,0-14.187-0.402-36.122-2.415c12.175-19.419,19.017-30.386,19.017-30.386
	l4.93,9.559c33.204-21.23-6.138-39.14-21.029-37.832C107.961,28.675,161.087,61.879,107.257,95.887"/>
<path fill="#424144" d="M224.375,69.526c-0.101-0.705-0.403-1.711-0.805-3.019c-0.402-1.308-1.006-2.516-2.012-3.824
	c-0.906-1.208-2.213-2.314-3.823-3.32c-1.61-0.905-3.623-1.409-6.138-1.409c-2.817,0-5.232,0.604-7.144,1.912
	c-1.912,1.207-3.421,2.917-4.527,4.93c-1.107,2.012-2.013,4.326-2.516,6.942c-0.503,2.616-0.805,5.131-0.805,7.848
	s0.302,5.231,0.805,7.848s1.308,4.83,2.516,6.942c1.106,2.013,2.616,3.724,4.527,4.931s4.327,1.912,7.144,1.912
	c2.012,0,3.823-0.303,5.232-1.007s2.616-1.609,3.622-2.717c1.006-1.207,1.811-2.515,2.415-4.226c0.604-1.609,1.106-3.32,1.509-5.132
	h23.745c0,3.925-0.805,7.849-2.314,11.772c-1.61,3.924-3.924,7.345-6.942,10.464c-3.019,3.119-6.842,5.635-11.269,7.547
	c-4.427,1.911-9.559,2.817-15.294,2.817c-6.339,0-12.074-1.107-16.903-3.22c-4.93-2.113-9.056-5.031-12.477-8.653
	s-6.037-8.05-7.748-13.08c-1.71-5.031-2.616-10.464-2.616-16.199c0-6.138,0.905-11.772,2.817-16.803
	c1.912-5.031,4.528-9.357,8.049-12.979c3.522-3.622,7.647-6.339,12.577-8.351c4.83-2.012,10.364-3.019,16.4-3.019
	c10.867,0.101,19.218,2.817,25.154,8.15c5.936,5.434,9.357,13.08,10.363,22.941H224.375z"/>
<path fill="#424144" d="M258.081,61.778h20.928v9.156h0.202c1.71-3.421,3.924-6.037,6.338-7.848
	c2.516-1.812,5.735-2.717,9.659-2.717c2.013,0,4.226,0.302,6.339,0.905v19.218c-1.106-0.402-2.213-0.704-3.421-1.006
	s-2.918-0.402-5.131-0.402c-4.327,0-7.647,1.308-9.86,4.024c-2.214,2.717-3.32,7.144-3.32,13.281v22.438h-21.733V61.778z"/>
<path fill="#424144" d="M351.251,114.401c-0.906,2.615-1.912,5.332-3.019,8.25s-2.515,5.434-4.226,7.546
	c-1.509,1.711-3.119,3.119-4.83,4.025c-1.71,0.905-3.622,1.609-5.634,2.112c-2.012,0.402-4.024,0.705-6.138,0.806
	c-2.113,0.101-4.226,0.101-6.339,0.101h-9.86v-17.407h5.031c1.107,0,2.314,0,3.522,0c1.207,0,2.314-0.201,3.119-0.503
	c0.705-0.402,1.208-0.905,1.509-1.509c0.403-0.604,0.503-1.51,0.503-2.817c0-0.402-0.201-1.309-0.604-2.717
	c-0.402-1.308-0.905-2.918-1.61-4.83c-0.704-1.811-1.408-3.823-2.113-5.835c-0.805-2.013-1.509-4.025-2.213-5.836
	c-0.705-1.912-1.308-3.521-1.912-4.931c-0.503-1.408-0.905-2.414-1.106-3.019l-9.659-26.26h23.343l9.156,32.8h0.201l9.257-32.8
	h22.538L351.251,114.401z"/>
<path fill="#424144" d="M374.393,61.778h21.029v6.238h0.201c0.704-0.906,1.408-1.812,2.213-2.717
	c0.806-0.906,1.912-1.71,3.119-2.516c1.208-0.704,2.817-1.308,4.629-1.811c1.811-0.503,4.024-0.704,6.741-0.704
	c4.024,0,7.546,0.905,10.564,2.716c3.019,1.812,5.534,4.125,7.445,7.043c2.013,2.918,3.421,6.138,4.428,9.76
	c1.006,3.622,1.509,7.144,1.509,10.766c0,3.421-0.402,6.842-1.106,10.363c-0.704,3.522-2.013,6.741-3.823,9.559
	c-1.812,2.817-4.327,5.232-7.446,7.044c-3.118,1.811-7.144,2.716-11.872,2.716c-3.32,0-6.339-0.704-9.056-2.012
	c-2.717-1.309-4.931-3.22-6.641-5.635h-0.201v24.752h-21.733V61.778L374.393,61.778z M395.422,90.353
	c0,1.711,0.101,3.421,0.402,5.031c0.302,1.71,0.704,3.22,1.509,4.527c0.704,1.309,1.711,2.415,2.918,3.22
	c1.208,0.805,2.817,1.309,4.83,1.309c2.012,0,3.622-0.403,4.829-1.309c1.207-0.805,2.214-1.911,2.918-3.22
	c0.704-1.308,1.207-2.817,1.509-4.527c0.302-1.711,0.403-3.421,0.403-5.031c0-1.609-0.102-3.421-0.403-5.03
	c-0.302-1.711-0.704-3.22-1.509-4.528c-0.704-1.308-1.711-2.415-2.918-3.32c-1.207-0.805-2.817-1.308-4.829-1.308
	c-2.013,0-3.623,0.402-4.83,1.308c-1.207,0.805-2.214,1.912-2.918,3.32c-0.704,1.309-1.207,2.918-1.509,4.528
	C395.523,86.932,395.422,88.643,395.422,90.353z"/>
<path fill="#424144" d="M471.89,61.778h11.672V75.16H471.89v19.922c0,2.615,0.402,4.527,1.309,5.734
	c0.805,1.208,2.615,1.812,5.433,1.812c1.61,0,3.22-0.101,4.931-0.302v16.501c-2.214,0-4.528,0.101-6.842,0.302
	c-2.415,0.201-4.729,0.302-7.043,0.302c-2.314,0-4.629-0.101-6.943-0.402c-2.313-0.302-4.427-1.006-6.237-2.214
	c-1.812-1.207-3.321-2.918-4.528-5.131c-1.207-2.314-1.71-5.333-1.71-9.257V75.16h-9.659V61.778h9.659V44.372h21.732v17.407H471.89z
	"/>
<path fill="#9D9D9C" d="M524.614,76.971c0.704-3.723,0.604-6.641-0.303-8.552c-0.905-2.012-3.018-3.019-6.338-3.019
	c-0.705,0-1.711,0.101-2.817,0.302c-1.107,0.201-2.214,0.604-3.32,1.107c-1.107,0.604-2.113,1.509-3.019,2.717
	c-0.906,1.207-1.61,2.817-2.013,4.93c-0.302,1.711-0.101,3.22,0.503,4.327c0.604,1.106,1.61,2.012,2.817,2.816
	c1.207,0.806,2.616,1.409,4.326,1.912c1.61,0.503,3.32,1.106,5.031,1.61c1.609,0.604,3.32,1.207,4.931,1.911
	c1.609,0.704,3.018,1.61,4.125,2.817c1.106,1.207,2.012,2.717,2.516,4.628c0.503,1.912,0.503,4.227,0,7.245
	c-0.504,3.119-1.51,5.734-2.817,8.049c-1.409,2.314-3.019,4.226-4.931,5.735c-1.912,1.509-4.226,2.717-6.641,3.421
	c-2.516,0.805-5.03,1.106-7.747,1.106c-5.031,0-8.754-0.805-11.169-2.414c-2.414-1.61-4.125-3.522-5.03-5.735
	c-0.906-2.214-1.208-4.528-1.007-6.842c0.201-2.314,0.403-4.327,0.705-5.836h9.256c-0.302,1.71-0.503,3.421-0.503,5.131
	c0,1.61,0.302,3.119,0.906,4.428c0.604,1.308,1.509,2.314,2.817,3.019c1.308,0.704,3.118,1.106,5.332,1.106
	c0.704,0,1.711-0.101,2.817-0.302s2.314-0.704,3.521-1.408c1.208-0.705,2.314-1.711,3.22-3.019c0.905-1.208,1.61-2.918,2.013-5.031
	c0.302-2.012,0.201-3.622-0.402-4.93c-0.604-1.309-1.51-2.314-2.717-3.22c-1.208-0.806-2.616-1.51-4.227-2.113
	c-1.609-0.604-3.22-1.207-4.93-1.711c-1.61-0.604-3.32-1.207-4.931-1.911c-1.609-0.704-3.019-1.61-4.226-2.817
	c-1.106-1.207-2.013-2.717-2.516-4.628c-0.503-1.912-0.503-4.327,0-7.345c0.503-2.717,1.409-5.132,2.717-7.144
	s3.019-3.723,4.931-5.131c2.012-1.308,4.125-2.314,6.54-3.019c2.414-0.704,4.829-1.006,7.445-1.006c4.226,0,7.445,0.705,9.659,2.013
	s3.723,2.918,4.527,4.83c0.806,1.912,1.208,3.924,1.107,6.137c-0.101,2.214-0.302,4.125-0.604,5.836H524.614L524.614,76.971z"/>
<path fill="#9D9D9C" d="M550.573,40.146h9.256l-4.628,26.261h0.201c0.805-1.208,1.812-2.314,3.019-3.32
	c1.207-1.006,2.616-1.912,4.024-2.616c1.409-0.705,2.918-1.308,4.327-1.71c1.509-0.402,2.918-0.604,4.226-0.604
	c3.823,0,6.641,0.604,8.452,1.912c1.811,1.308,3.018,2.917,3.622,4.83c0.604,1.912,0.805,3.924,0.604,6.137
	c-0.201,2.214-0.503,4.125-0.806,5.836l-7.345,41.756h-9.156l7.145-40.649c0.201-1.106,0.402-2.314,0.503-3.723
	c0.101-1.408,0-2.716-0.402-3.924c-0.403-1.208-1.107-2.213-2.113-3.019c-1.006-0.805-2.616-1.208-4.628-1.208
	c-1.208,0-2.616,0.202-4.025,0.705c-1.408,0.402-2.817,1.106-4.125,2.113c-1.308,0.906-2.516,2.213-3.521,3.723
	s-1.711,3.321-2.013,5.433l-7.144,40.649h-9.257L550.573,40.146z"/>
<path fill="#9D9D9C" d="M593.536,77.575c1.207-6.641,3.622-11.571,7.244-14.69s8.955-4.628,15.998-4.628
	c4.427,0,7.848,0.604,10.062,1.812c2.214,1.207,3.723,2.616,4.528,4.427c0.805,1.71,1.207,3.623,1.006,5.534
	s-0.402,3.723-0.604,5.232l-5.836,32.902c-0.201,1.207-0.302,2.313-0.302,3.32c0.101,0.905,0.805,1.408,2.313,1.408
	c0.604,0,1.007-0.101,1.409-0.201c0.302-0.101,0.604-0.201,0.905-0.402l-1.207,6.641c-0.402,0.101-1.106,0.201-2.113,0.302
	c-1.006,0.101-2.213,0.201-3.32,0.201c-0.905,0-1.811,0-2.717-0.101c-0.905-0.101-1.71-0.302-2.515-0.805
	c-0.806-0.503-1.309-1.207-1.711-2.214c-0.402-1.006-0.402-2.516-0.201-4.427h-0.201c-1.912,2.616-4.326,4.729-7.244,6.238
	c-2.918,1.509-5.735,2.213-8.452,2.213c-5.534,0-9.257-1.509-11.369-4.628c-2.013-3.119-2.616-7.244-1.711-12.577
	c0.704-4.226,2.214-7.646,4.527-10.363c2.314-2.717,5.434-4.729,9.458-5.836l13.08-3.723c1.812-0.503,3.22-1.006,4.227-1.61
	c1.006-0.503,1.811-1.106,2.313-1.811c0.504-0.704,0.906-1.409,1.107-2.314s0.402-1.912,0.704-3.22
	c1.006-5.835-1.61-8.653-7.949-8.653c-2.615,0-4.628,0.503-6.137,1.509c-1.51,1.006-2.717,2.113-3.622,3.421
	c-0.906,1.308-1.409,2.616-1.812,3.924c-0.302,1.308-0.503,2.213-0.604,2.716l-0.101,0.503h-9.156V77.575z M620.4,86.53
	c-1.006,0.905-2.214,1.609-3.723,2.214c-1.409,0.604-2.918,1.106-4.527,1.609c-1.61,0.503-3.119,0.905-4.629,1.409
	c-1.509,0.503-2.817,1.006-3.924,1.71c-1.61,0.905-2.918,2.113-3.924,3.421c-1.007,1.309-1.711,3.32-2.214,5.836
	c-0.503,3.119-0.402,5.534,0.503,7.345c0.905,1.812,2.918,2.717,6.037,2.717c1.509,0,3.019-0.302,4.527-0.905
	c1.51-0.604,2.918-1.409,4.227-2.415c1.308-1.006,2.313-2.214,3.22-3.622c0.905-1.308,1.509-2.817,1.71-4.326L620.4,86.53z"/>
<path fill="#9D9D9C" d="M646.862,59.766h9.257l-1.509,8.754h0.201c0.905-1.409,1.811-2.717,2.817-3.924
	c1.006-1.207,2.112-2.314,3.32-3.32c1.207-0.905,2.515-1.71,3.823-2.213c1.408-0.503,2.918-0.805,4.628-0.805
	c1.812,0,3.119,0.202,3.924,0.705l-1.609,9.056c-0.402-0.101-1.006-0.202-1.61-0.302c-0.704-0.101-1.71-0.201-3.22-0.201
	c-1.207,0-2.515,0.302-4.024,0.805c-1.509,0.503-2.918,1.409-4.326,2.515c-1.409,1.107-2.717,2.616-3.823,4.327
	c-1.107,1.811-1.912,3.824-2.415,6.238l-6.54,37.329h-9.257L646.862,59.766z"/>
<path fill="#9D9D9C" d="M681.977,90.353c-0.402,2.314-0.805,4.729-1.106,7.345c-0.402,2.616-0.402,5.132-0.101,7.346
	c0.302,2.313,1.106,4.125,2.314,5.634c1.207,1.51,3.219,2.214,6.036,2.214c2.113,0,3.925-0.503,5.434-1.509
	c1.51-1.007,2.717-2.214,3.622-3.622c0.905-1.409,1.61-2.918,2.113-4.528c0.503-1.609,0.805-2.918,1.006-4.024h9.458
	c-0.302,1.509-0.905,3.521-1.912,5.836c-1.006,2.414-2.414,4.729-4.226,6.942c-1.912,2.214-4.226,4.125-7.043,5.735
	c-2.817,1.609-6.238,2.313-10.363,2.313c-7.244,0-12.074-2.515-14.389-7.445c-2.313-5.03-2.615-12.577-0.805-22.739
	c0.604-3.622,1.51-7.345,2.717-11.168c1.106-3.824,2.717-7.144,4.729-10.263c2.013-3.019,4.629-5.534,7.647-7.446
	c3.119-1.912,6.942-2.918,11.47-2.918c4.428,0,7.849,0.906,10.162,2.616c2.314,1.71,3.925,4.024,4.729,6.741
	s1.106,5.836,0.905,9.156c-0.201,3.421-0.604,6.641-1.207,9.76l-0.704,3.723h-30.487V90.353z M704.113,83.008l0.604-3.22
	c0.302-1.61,0.402-3.32,0.402-5.031s-0.201-3.32-0.704-4.628c-0.503-1.409-1.308-2.516-2.516-3.421
	c-1.106-0.906-2.717-1.308-4.729-1.308c-2.415,0-4.327,0.604-6.037,1.912c-1.61,1.308-2.918,2.817-3.924,4.427
	c-1.007,1.71-1.812,3.421-2.314,5.131c-0.503,1.711-0.905,3.019-1.006,3.924l-0.402,2.214H704.113z"/>
</svg>
